{"title":"[ShepardTDS] The World God Only Knows [720p 8-bit x265 HEVC] 00-","uid":12620313,"size":2537177271,"categoryP":"video","categoryS":"tv_shows","magnet":"?xt=urn:btih:54b7e83d7d927a94ba46b8677abb012d640c3a1b&amp;dn=%5BShepardTDS%5D+The+World+God+Only+Knows+%5B720p+8-bit+x265+HEVC%5D+00-&amp;tr=udp%3A%2F%2Ftracker.leechers-paradise.org%3A6969&amp;tr=udp%3A%2F%2Fzer0day.ch%3A1337&amp;tr=udp%3A%2F%2Fopen.demonii.com%3A1337&amp;tr=udp%3A%2F%2Ftracker.coppersurfer.tk%3A6969&amp;tr=udp%3A%2F%2Fexodus.desync.com%3A6969","seeders":1,"leechers":0,"uploader":"ShepardTDS","files":13,"time":1445590141,"description":"Constant Quality encoding.\r\nVariable Bit rates\r\n\r\n\r\nGeneral\r\n\r\nFormat : Matroska\r\nFile size : 176 MiB\r\nDuration : 25mn 16s\r\nOverall bit rate : 975 Kbps-1,214 kbps\r\nEncoded date : UTC 2015-10-22 22:18:38\r\nWriting application : mkvmerge v7.7.0 ('Six Voices') 32bit built on Feb 28 2015 23:23:00\r\nWriting library : libebml v1.3.1 + libmatroska v1.4.2\r\n\r\nVideo\r\nID : 1\r\nFormat : V_MPEGH/ISO/HEVC\r\nCodec ID : V_MPEGH/ISO/HEVC\r\nDuration : 25mn 16s\r\nBit rate : 572 Kbps-805 kbps\r\nWidth : 1 280 pixels\r\nHeight : 720 pixels\r\nDisplay aspect ratio : 16:9\r\nFrame rate : 23.976 fps\r\nBits/(Pixel*Frame) : 0.026\r\nStream size : 103 MiB (59%)\r\n\r\nAudio #1\r\nID : 2\r\nFormat : AC-3\r\nFormat/Info : Audio Coding 3\r\nMode extension : CM (complete main)\r\nCodec ID : A_AC3\r\nDuration : 25mn 16s\r\nBit rate mode : Constant\r\nBit rate : 192 Kbps\r\nChannel(s) : 2 channels\r\nChannel positions : Front: L R\r\nSampling rate : 48.0 KHz\r\nBit depth : 16 bits\r\nCompression mode : Lossy\r\nStream size : 34.7 MiB (20%)\r\nLanguage : English\r\n\r\nAudio #2\r\nID : 3\r\nFormat : AC-3\r\nFormat/Info : Audio Coding 3\r\nMode extension : CM (complete main)\r\nCodec ID : A_AC3\r\nDuration : 25mn 16s\r\nBit rate mode : Constant\r\nBit rate : 192 Kbps\r\nChannel(s) : 2 channels\r\nChannel positions : Front: L R\r\nSampling rate : 48.0 KHz\r\nBit depth : 16 bits\r\nCompression mode : Lossy\r\nStream size : 34.7 MiB (20%)\r\nLanguage : Japanese\r\n\r\nText #1\r\nID : 4\r\nFormat : ASS\r\nCodec ID : S_TEXT/ASS\r\nCodec ID/Info : Advanced Sub Station Alpha\r\nCompression mode : Lossless\r\nTitle : Signs/Credits\r\nLanguage : English\r\n\r\nText #2\r\nID : 5\r\nFormat : ASS\r\nCodec ID : S_TEXT/ASS\r\nCodec ID/Info : Advanced Sub Station Alpha\r\nCompression mode : Lossless\r\nTitle : Dialogue\r\nLanguage : English\r\n\r\nMenu\r\n00:00:00.000 : en:(01)00:00:00:000\r\n00:00:53.053 : en:(02)00:00:53:053\r\n00:02:23.017 : en:(03)00:02:23:017\r\n00:21:15.524 : en:(04)00:21:15:524\r\n00:22:46.782 : en:(05)00:22:46:782\r\n00:23:22.943 : en:(06)00:23:22:943\r\n00:23:38.417 : en:(07)00:23:38:417\r\n00:25:15.472 : en:(08)00:25:15:472","torrent":{"xt":"urn:btih:54b7e83d7d927a94ba46b8677abb012d640c3a1b","amp;dn":"%5BShepardTDS%5D+The+World+God+Only+Knows+%5B720p+8-bit+x265+HEVC%5D+00-","amp;tr":["udp%3A%2F%2Ftracker.leechers-paradise.org%3A6969","udp%3A%2F%2Fzer0day.ch%3A1337","udp%3A%2F%2Fopen.demonii.com%3A1337","udp%3A%2F%2Ftracker.coppersurfer.tk%3A6969","udp%3A%2F%2Fexodus.desync.com%3A6969"],"infoHash":"54b7e83d7d927a94ba46b8677abb012d640c3a1b","infoHashBuffer":{"type":"Buffer","data":[84,183,232,61,125,146,122,148,186,70,184,103,122,187,1,45,100,12,58,27]},"announce":[],"urlList":[]}}